<?xml version="1.0" encoding="utf-8"?>
<!-- Generator: Adobe Illustrator 22.0.1, SVG Export Plug-In . SVG Version: 6.00 Build 0)  -->
<svg version="1.1" id="Layer_1" xmlns="http://www.w3.org/2000/svg" xmlns:xlink="http://www.w3.org/1999/xlink" x="0px" y="0px"
	 viewBox="0 0 500 500" style="enable-background:new 0 0 500 500;" xml:space="preserve">
<style type="text/css">
	.st0{fill:#fff;stroke:#000000;stroke-width:3;stroke-miterlimit:10;fill}
	.st1{fill:#fff;stroke:#000000;stroke-width:3;stroke-miterlimit:10;}
</style>
<path class="st0" d="M408.2,219.5c-4.5,0-8.7,1-12.5,2.7C381.3,162.7,321.5,118,249.8,118c-71.7,0-131.5,44.7-145.9,104.2
	c-3.8-1.7-8-2.7-12.5-2.7c-16.8,0-30.5,13.6-30.5,30.5s13.6,30.5,30.5,30.5c4.5,0,8.7-1,12.5-2.7C118.3,337.3,178.1,382,249.8,382
	c71.7,0,131.5-44.7,145.9-104.2c3.8,1.7,8,2.7,12.5,2.7c16.8,0,30.5-13.6,30.5-30.5S425.1,219.5,408.2,219.5z"/>
<path class="st1" d="M270.9,118.8c-24.7-3.6-48.3,13.1-52.7,37.3c-3.5,19.3,9.8,37.3,29.6,40.2c15.8,2.3,30.9-8.4,33.7-23.9
	c2.2-12.4-6.2-23.9-18.9-25.7c-10.1-1.5-19.8,5.4-21.6,15.3c-1.4,7.9,4,15.3,12.1,16.5c6.5,0.9,12.7-3.4,13.8-9.8
	c0.9-5.1-2.6-9.8-7.7-10.5c-4.2-0.6-8.1,2.2-8.8,6.3c-0.6,3.2,1.6,6.3,5,6.7"/>
<path class="st1" d="M317.7,342.1H181.9c-2.9,0-5.3-2.4-5.3-5.3V264c0-2.9,2.4-5.3,5.3-5.3h135.7c2.9,0,5.3,2.4,5.3,5.3v72.8
	C322.9,339.7,320.6,342.1,317.7,342.1z"/>
<circle class="st0" cx="249.8" cy="321" r="44.9"/>
<circle class="st1" cx="249.8" cy="321" r="18.4"/>
</svg>
